<?xml version="1.0" encoding="utf-8"?>
<!-- Generator: Adobe Illustrator 15.0.0, SVG Export Plug-In . SVG Version: 6.00 Build 0)  -->
<!DOCTYPE svg PUBLIC "-//W3C//DTD SVG 1.1//EN" "http://www.w3.org/Graphics/SVG/1.1/DTD/svg11.dtd">
<svg version="1.1" id="图层_1" xmlns="http://www.w3.org/2000/svg" xmlns:xlink="http://www.w3.org/1999/xlink" x="0px" y="0px"
	 width="25px" height="25px" viewBox="0 0 25 25" enable-background="new 0 0 25 25" xml:space="preserve">
<path fill="#FFFFFF" d="M12.517,13.364l3.167-4.504L12.517,13.364l5.187,2.04L12.517,13.364l-0.019,6.168L12.517,13.364l-5.224,2.04
	L12.517,13.364L9.315,8.86L12.517,13.364 M12.5,0.461c-0.667,0-1.275,0.392-1.559,1.005L8.244,7.302L2.039,8.264
	C1.401,8.362,0.872,8.816,0.666,9.438c-0.205,0.622-0.05,1.307,0.4,1.773l4.547,4.733l-1.055,6.563
	c-0.105,0.661,0.168,1.324,0.707,1.711c0.296,0.213,0.644,0.32,0.992,0.32c0.287,0,0.573-0.072,0.833-0.218l5.41-2.939l5.412,2.939
	c0.26,0.145,0.547,0.218,0.832,0.218c0.348,0,0.694-0.107,0.991-0.319c0.538-0.386,0.813-1.051,0.706-1.712l-1.054-6.563
	l4.548-4.732c0.45-0.467,0.604-1.152,0.398-1.774s-0.734-1.075-1.372-1.173l-6.205-0.962l-2.698-5.836
	C13.775,0.853,13.168,0.461,12.5,0.461L12.5,0.461L12.5,0.461z"/>
</svg>
