<?xml version="1.0" encoding="utf-8"?>
<!DOCTYPE svg PUBLIC "-//W3C//DTD SVG 1.1//EN" "http://www.w3.org/Graphics/SVG/1.1/DTD/svg11.dtd">
<svg style="width:308px;height:308px;" version="1.1" id="图形" xmlns="http://www.w3.org/2000/svg" xmlns:xlink="http://www.w3.org/1999/xlink" x="0px" y="0px" width="1024px" height="1024px" viewBox="0 0 1024 1024" enable-background="new 0 0 1024 1024" xml:space="preserve">
  <path class="svgpath" data-index="path_0" fill="#ffffff" d="M512.713875 548.749995 647.42763 357.231238 512.713875 548.749995l220.617508 86.757503L512.713875 548.749995l-0.77125 262.28501L512.713875 548.749995l-222.152508 86.757503L512.713875 548.749995 376.54762 357.231238 512.713875 548.749995M511.973875-2.5e-05c-28.360001 0-54.213752 16.670001-66.275002 42.753752l-114.687504 248.173759L67.076359 331.832487c-27.110001 4.21375-49.610002 23.496251-58.370002 49.921252-8.705 26.455001-2.10375 55.581252 17.036251 75.435003l193.370007 201.303757-44.858752 279.12126c-4.52125 28.136251 7.13875 56.323752 30.063751 72.792503 12.5725 9.01375 27.362501 13.59375 42.182502 13.59375 12.20625 0 24.380001-3.07125 35.415001-9.2425l230.058758-124.986255 230.116258 124.986255c11.065 6.14125 23.267501 9.2425 35.411251 9.2425 14.795001 0 29.585001-4.58 42.211252-13.56875 22.872501-16.440001 34.531251-44.653752 29.980001-72.787503l-44.852502-279.12626L998.286393 457.217492c19.145001-19.852501 25.717501-48.985002 16.981251-75.433753-8.75875-26.426251-31.258751-45.713752-58.368752-49.922502L693.023882 290.957486l-114.746254-248.178759C566.273877 16.669976 540.390126-2.5e-05 511.973875-2.5e-05L511.973875-2.5e-05 511.973875-2.5e-05zM511.973875-2.5e-05" />

</svg>
